<svg width="1024" height="1024" viewBox="0 0 1024 1024" fill="none" xmlns="http://www.w3.org/2000/svg">
<rect width="1024" height="1024" rx="200" fill="white"/>
<path d="M407.804 755.469C407.804 807.27 432.687 818.667 490.748 823.847V857H188V823.847C246.061 818.667 270.945 807.27 270.945 755.469V268.532C270.945 216.73 246.061 205.333 188 200.153V167H487.638C692.926 167 805.939 215.694 805.939 354.523C805.939 455.018 745.804 507.856 633.828 528.577L748.914 715.063C780.018 765.829 818.38 819.703 864 823.847V857H675.301L479.344 539.973H407.804V755.469ZM407.804 481.955H516.669C590.282 481.955 650.417 456.054 650.417 354.523C650.417 250.919 590.282 218.802 507.337 218.802C474.16 218.802 440.982 218.802 407.804 223.982V481.955Z" fill="#0D0F1A"/>
</svg>
