<svg width="1024" height="1024" viewBox="0 0 1024 1024" fill="none" xmlns="http://www.w3.org/2000/svg">
<rect width="1024" height="1024" rx="228" fill="#4959E6"/>
<path d="M417.92 760.04C417.92 814.04 443.84 825.92 500 831.32V871.28H176V831.32C232.16 825.92 258.08 814.04 258.08 760.04V263.24C258.08 209.24 232.16 197.36 176 191.96V152H507.56C716 152 833.72 201.68 833.72 346.4C833.72 450.08 773.24 506.24 656.6 530L768.92 713.6C806.72 775.16 839.72 824.84 884 831.32V871.28H677.12L479.48 542.96H417.92V760.04ZM417.92 478.16H521.6C591.8 478.16 653.36 453.32 653.36 347.48C653.36 240.56 591.8 211.4 514.04 211.4C481.64 211.4 450.32 211.4 417.92 216.8V478.16Z" fill="white"/>
</svg>
