<svg width="1024" height="1024" viewBox="0 0 1024 1024" fill="none" xmlns="http://www.w3.org/2000/svg">
<rect width="1024" height="1024" rx="200" fill="#0F0F0F"/>
<path d="M419.509 730.769C419.509 777.315 441.868 787.556 494.04 792.21V822H222V792.21C274.172 787.556 296.532 777.315 296.532 730.769V293.231C296.532 246.685 274.172 236.444 222 231.79V202H491.245C675.711 202 777.26 245.754 777.26 370.498C777.26 460.799 723.225 508.276 622.607 526.895L726.02 694.462C753.969 740.078 788.44 788.486 829.432 792.21V822H659.873L483.792 537.135H419.509V730.769ZM419.509 485.003H517.331C583.478 485.003 637.514 461.73 637.514 370.498C637.514 277.405 583.478 248.546 508.947 248.546C479.134 248.546 449.321 248.546 419.509 253.201V485.003Z" fill="white"/>
</svg>
