<svg width="1574" height="890" viewBox="0 0 1574 890" fill="none" xmlns="http://www.w3.org/2000/svg">
<rect width="1572" height="888" transform="translate(1 1)" fill="white"/>
<path d="M1 1H1573V297H1V1Z" fill="#F4F5FF"/>
<path d="M1 1H1573V297H1V1Z" stroke="#4959E6" stroke-width="2"/>
<path d="M784 21H790" stroke="#4959E6" stroke-width="2"/>
<path d="M787 21V115" stroke="#4959E6" stroke-width="2"/>
<path d="M784 115H790" stroke="#4959E6" stroke-width="2"/>
<path d="M771.512 160V158.096L777.28 151.852C778.419 150.639 779.324 149.64 779.996 148.856C780.687 148.072 781.191 147.372 781.508 146.756C781.825 146.14 781.984 145.487 781.984 144.796C781.984 143.657 781.648 142.78 780.976 142.164C780.304 141.548 779.417 141.24 778.316 141.24C777.196 141.24 776.244 141.567 775.46 142.22C774.676 142.855 774.135 143.76 773.836 144.936L771.344 144.292C771.587 143.172 772.035 142.201 772.688 141.38C773.341 140.559 774.153 139.924 775.124 139.476C776.095 139.028 777.159 138.804 778.316 138.804C779.585 138.804 780.696 139.056 781.648 139.56C782.619 140.045 783.375 140.727 783.916 141.604C784.476 142.481 784.756 143.499 784.756 144.656C784.756 145.421 784.597 146.168 784.28 146.896C783.963 147.624 783.496 148.399 782.88 149.22C782.264 150.023 781.461 150.956 780.472 152.02L775.32 157.62H785.204V160H771.512ZM790.178 160L788.442 158.264L792.922 153.756L788.47 149.304L790.206 147.568L794.658 152.048L799.138 147.568L800.874 149.304L796.394 153.756L800.874 158.264L799.166 160L794.658 155.492L790.178 160Z" fill="#4959E6"/>
<path d="M784 183H790" stroke="#4959E6" stroke-width="2"/>
<path d="M787 183V277" stroke="#4959E6" stroke-width="2"/>
<path d="M784 277H790" stroke="#4959E6" stroke-width="2"/>
<path d="M1 297H385V593H1V297Z" fill="#F4F5FF"/>
<path d="M1 297H385V593H1V297Z" stroke="#4959E6" stroke-width="2"/>
<path d="M190 317H196" stroke="#4959E6" stroke-width="2"/>
<path d="M193 317V411" stroke="#4959E6" stroke-width="2"/>
<path d="M190 411H196" stroke="#4959E6" stroke-width="2"/>
<path d="M177.512 456V454.096L183.28 447.852C184.419 446.639 185.324 445.64 185.996 444.856C186.687 444.072 187.191 443.372 187.508 442.756C187.825 442.14 187.984 441.487 187.984 440.796C187.984 439.657 187.648 438.78 186.976 438.164C186.304 437.548 185.417 437.24 184.316 437.24C183.196 437.24 182.244 437.567 181.46 438.22C180.676 438.855 180.135 439.76 179.836 440.936L177.344 440.292C177.587 439.172 178.035 438.201 178.688 437.38C179.341 436.559 180.153 435.924 181.124 435.476C182.095 435.028 183.159 434.804 184.316 434.804C185.585 434.804 186.696 435.056 187.648 435.56C188.619 436.045 189.375 436.727 189.916 437.604C190.476 438.481 190.756 439.499 190.756 440.656C190.756 441.421 190.597 442.168 190.28 442.896C189.963 443.624 189.496 444.399 188.88 445.22C188.264 446.023 187.461 446.956 186.472 448.02L181.32 453.62H191.204V456H177.512ZM196.178 456L194.442 454.264L198.922 449.756L194.47 445.304L196.206 443.568L200.658 448.048L205.138 443.568L206.874 445.304L202.394 449.756L206.874 454.264L205.166 456L200.658 451.492L196.178 456Z" fill="#4959E6"/>
<path d="M190 479H196" stroke="#4959E6" stroke-width="2"/>
<path d="M193 479V573" stroke="#4959E6" stroke-width="2"/>
<path d="M190 573H196" stroke="#4959E6" stroke-width="2"/>
<path d="M385 371H565V519H385V371Z" fill="#F4F5FF" stroke="#4959E6" stroke-width="2"/>
<g clip-path="url(#clip0_296_2630)">
<path d="M565 371H667V519H565V371Z" fill="#F4F5FF"/>
<path opacity="0.25" d="M613.163 519C585.669 519 565 498.526 565 466.937C565 437.103 585.474 414.679 613.358 414.679C627.593 414.679 640.072 420.723 646.117 429.303V371H667V519H646.117V504.96C639.682 513.15 626.618 519 613.163 519ZM616.088 500.086C633.443 500.086 646.507 486.631 646.507 466.742C646.507 447.047 633.443 433.593 616.088 433.593C598.734 433.593 585.864 446.852 585.864 466.742C585.864 486.826 598.734 500.086 616.088 500.086Z" fill="#4959E6"/>
</g>
<path d="M565 371H667V519H565V371Z" stroke="#4959E6" stroke-width="2"/>
<rect x="667" y="371" width="522" height="148" fill="#F4F5FF" stroke="#4959E6" stroke-width="2"/>
<path d="M1189 297H1573V593H1189V297Z" fill="#F4F5FF"/>
<path d="M1189 297H1573V593H1189V297Z" stroke="#4959E6" stroke-width="2"/>
<path d="M1378 317H1384" stroke="#4959E6" stroke-width="2"/>
<path d="M1381 317V411" stroke="#4959E6" stroke-width="2"/>
<path d="M1378 411H1384" stroke="#4959E6" stroke-width="2"/>
<path d="M1365.51 456V454.096L1371.28 447.852C1372.42 446.639 1373.32 445.64 1374 444.856C1374.69 444.072 1375.19 443.372 1375.51 442.756C1375.83 442.14 1375.98 441.487 1375.98 440.796C1375.98 439.657 1375.65 438.78 1374.98 438.164C1374.3 437.548 1373.42 437.24 1372.32 437.24C1371.2 437.24 1370.24 437.567 1369.46 438.22C1368.68 438.855 1368.13 439.76 1367.84 440.936L1365.34 440.292C1365.59 439.172 1366.03 438.201 1366.69 437.38C1367.34 436.559 1368.15 435.924 1369.12 435.476C1370.09 435.028 1371.16 434.804 1372.32 434.804C1373.59 434.804 1374.7 435.056 1375.65 435.56C1376.62 436.045 1377.37 436.727 1377.92 437.604C1378.48 438.481 1378.76 439.499 1378.76 440.656C1378.76 441.421 1378.6 442.168 1378.28 442.896C1377.96 443.624 1377.5 444.399 1376.88 445.22C1376.26 446.023 1375.46 446.956 1374.47 448.02L1369.32 453.62H1379.2V456H1365.51ZM1384.18 456L1382.44 454.264L1386.92 449.756L1382.47 445.304L1384.21 443.568L1388.66 448.048L1393.14 443.568L1394.87 445.304L1390.39 449.756L1394.87 454.264L1393.17 456L1388.66 451.492L1384.18 456Z" fill="#4959E6"/>
<path d="M1378 479H1384" stroke="#4959E6" stroke-width="2"/>
<path d="M1381 479V573" stroke="#4959E6" stroke-width="2"/>
<path d="M1378 573H1384" stroke="#4959E6" stroke-width="2"/>
<path d="M1 593H1573V889H1V593Z" fill="#F4F5FF"/>
<path d="M1 593H1573V889H1V593Z" stroke="#4959E6" stroke-width="2"/>
<path d="M784 613H790" stroke="#4959E6" stroke-width="2"/>
<path d="M787 613V707" stroke="#4959E6" stroke-width="2"/>
<path d="M784 707H790" stroke="#4959E6" stroke-width="2"/>
<path d="M771.512 752V750.096L777.28 743.852C778.419 742.639 779.324 741.64 779.996 740.856C780.687 740.072 781.191 739.372 781.508 738.756C781.825 738.14 781.984 737.487 781.984 736.796C781.984 735.657 781.648 734.78 780.976 734.164C780.304 733.548 779.417 733.24 778.316 733.24C777.196 733.24 776.244 733.567 775.46 734.22C774.676 734.855 774.135 735.76 773.836 736.936L771.344 736.292C771.587 735.172 772.035 734.201 772.688 733.38C773.341 732.559 774.153 731.924 775.124 731.476C776.095 731.028 777.159 730.804 778.316 730.804C779.585 730.804 780.696 731.056 781.648 731.56C782.619 732.045 783.375 732.727 783.916 733.604C784.476 734.481 784.756 735.499 784.756 736.656C784.756 737.421 784.597 738.168 784.28 738.896C783.963 739.624 783.496 740.399 782.88 741.22C782.264 742.023 781.461 742.956 780.472 744.02L775.32 749.62H785.204V752H771.512ZM790.178 752L788.442 750.264L792.922 745.756L788.47 741.304L790.206 739.568L794.658 744.048L799.138 739.568L800.874 741.304L796.394 745.756L800.874 750.264L799.166 752L794.658 747.492L790.178 752Z" fill="#4959E6"/>
<path d="M784 775H790" stroke="#4959E6" stroke-width="2"/>
<path d="M787 775V869" stroke="#4959E6" stroke-width="2"/>
<path d="M784 869H790" stroke="#4959E6" stroke-width="2"/>
<g clip-path="url(#clip1_296_2630)">
<path d="M385.339 487.472C386.786 481.911 392.459 478.578 398.008 480.029L460.147 496.275C469.887 498.822 480.116 498.822 489.855 496.275L512.187 490.437C517.737 488.986 523.409 492.318 524.857 497.88C526.304 503.442 522.979 509.127 517.43 510.577L495.097 516.416C481.92 519.861 468.082 519.861 454.905 516.416L392.766 500.17C387.216 498.719 383.891 493.034 385.339 487.472ZM544.231 490.099C544.231 474.112 529.153 462.413 513.884 466.405L495.097 471.317C481.92 474.762 468.082 474.762 454.905 471.317L392.766 455.07C387.216 453.62 383.891 447.935 385.339 442.373C386.786 436.811 392.459 433.479 398.008 434.93L460.147 451.176C469.887 453.722 480.116 453.722 489.855 451.176L530.223 440.621C538.474 438.464 544.231 430.996 544.231 422.45C544.231 413.904 538.474 406.436 530.223 404.279L489.855 393.725C480.116 391.178 469.887 391.178 460.147 393.725L436.526 399.901L477.622 410.645C483.172 412.096 486.497 417.781 485.049 423.343C483.602 428.904 477.93 432.237 472.38 430.786L392.766 409.971C388.193 408.776 385.002 404.637 385.002 399.901C385.002 395.164 388.193 391.026 392.766 389.83L454.905 373.584C468.082 370.139 481.92 370.139 495.097 373.584L535.466 384.138C552.862 388.686 565 404.432 565 422.45C565 435.635 558.5 447.603 548.196 454.857C558.345 463.086 565 475.684 565 490.099C565 495.847 560.351 500.507 554.616 500.507C548.88 500.507 544.231 495.847 544.231 490.099Z" fill="#4959E6"/>
<path d="M717.103 382C746.851 382 763.879 400.593 763.879 423.883C763.879 442.867 753.506 457.35 736.479 463.809L769 519H744.111L715.537 467.331H688.333V519H667V382H717.103ZM826.564 415C857.155 415 874 439.494 874 465.153V473.706H797.523C799.847 490.813 810.689 500.532 826.952 500.532C842.054 500.532 850.572 492.952 854.832 484.204L870.709 492.368C864.513 505.976 849.605 519 826.371 519C797.523 519 777 496.256 777 466.902C777 437.549 796.748 415 826.564 415ZM939.248 415C953.653 415 965.527 421.026 971.562 429.579V416.75H992V519H971.562V505.004C965.138 513.168 952.874 519 939.442 519C911.607 519 890.195 498.977 890 466.902C890.195 437.355 910.244 415 939.248 415ZM1110 519H1089.12V504.961C1082.68 513.15 1069.62 519 1056.16 519C1028.67 519 1008 498.525 1008 466.937C1008 437.103 1028.47 414.679 1056.36 414.679C1070.59 414.679 1083.07 420.723 1089.12 429.303V371H1110V519ZM1189 436.754H1169.75C1160.18 436.754 1154.51 441.443 1154.51 452.383V519H1134V451.797C1134 434.605 1142.99 418 1168.38 418H1189V436.754ZM941.39 433.856C923.871 433.856 910.828 447.075 910.828 466.902C910.828 486.925 923.871 500.144 941.39 500.144C958.909 500.143 971.95 486.73 971.95 466.902C971.95 447.269 958.908 433.857 941.39 433.856ZM1059.09 433.593C1041.73 433.593 1028.86 446.853 1028.86 466.742C1028.86 486.826 1041.73 500.086 1059.09 500.086C1076.44 500.086 1089.51 486.631 1089.51 466.742C1089.51 447.048 1076.44 433.593 1059.09 433.593ZM826.952 432.689C811.657 432.689 801.008 442.021 798.104 457.184H853.09C852.896 445.52 843.796 432.689 826.952 432.689ZM688.333 447.564H717.103C730.998 447.564 741.959 438.561 741.959 424.078C741.959 409.987 730.802 401.18 717.103 401.18H688.333V447.564Z" fill="#0D0F1A"/>
</g>
<defs>
<clipPath id="clip0_296_2630">
<path d="M565 371H667V519H565V371Z" fill="white"/>
</clipPath>
<clipPath id="clip1_296_2630">
<rect width="804" height="148" fill="white" transform="translate(385 371)"/>
</clipPath>
</defs>
</svg>
